{
    "asset" : {
        "copyright" : "kiowe",
        "generator" : "Khronos glTF Blender I/O v1.7.33",
        "version" : "2.0"
    },
    "scene" : 0,
    "scenes" : [
        {
            "name" : "Scene",
            "nodes" : [
                0,
                1,
                2,
                3,
                4,
                5,
                6,
                7
            ]
        }
    ],
    "nodes" : [
        {
            "mesh" : 0,
            "name" : "Floor",
            "scale" : [
                1,
                -0.0644676610827446,
                1
            ]
        },
        {
            "mesh" : 1,
            "name" : "Cube.001",
            "scale" : [
                1.8116565942764282,
                4.613218784332275,
                4.870597839355469
            ],
            "translation" : [
                23.021224975585938,
                5.236534118652344,
                0
            ]
        },
        {
            "mesh" : 2,
            "name" : "Sphere",
            "scale" : [
                1.253021001815796,
                1.253021001815796,
                1.253021001815796
            ],
            "translation" : [
                23.208087921142578,
                3.4848201274871826,
                12.54597282409668
            ]
        },
        {
            "mesh" : 3,
            "name" : "Cone",
            "translation" : [
                22.631086349487305,
                1.6690876483917236,
                -10.48610782623291
            ]
        },
        {
            "mesh" : 4,
            "name" : "Cube.002",
            "scale" : [
                7.0755934715271,
                0.33279091119766235,
                16.270139694213867
            ],
            "translation" : [
                -18.836416244506836,
                8.835643768310547,
                0
            ]
        },
        {
            "mesh" : 5,
            "name" : "Cube.003",
            "scale" : [
                1,
                0.3338909447193146,
                1
            ],
            "translation" : [
                -10.758763313293457,
                8.840883255004883,
                15.25553035736084
            ]
        },
        {
            "mesh" : 6,
            "name" : "Cube",
            "rotation" : [
                0,
                -0.16924713551998138,
                0,
                0.9855736494064331
            ],
            "translation" : [
                -21.186620712280273,
                10.58402156829834,
                -12.573612213134766
            ]
        },
        {
            "mesh" : 7,
            "name" : "Cube.004",
            "rotation" : [
                0,
                0.23044875264167786,
                0,
                0.973084568977356
            ],
            "translation" : [
                -21.186620712280273,
                13.384425163269043,
                -12.573612213134766
            ]
        }
    ],
    "materials" : [
        {
            "doubleSided" : true,
            "name" : "Material",
            "pbrMetallicRoughness" : {
                "baseColorTexture" : {
                    "index" : 0
                },
                "metallicFactor" : 0
            }
        },
        {
            "doubleSided" : true,
            "name" : "Wooden Crate",
            "pbrMetallicRoughness" : {
                "baseColorTexture" : {
                    "index" : 1
                },
                "metallicFactor" : 0
            }
        },
        {
            "doubleSided" : true,
            "name" : "Wooden Crate.001",
            "pbrMetallicRoughness" : {
                "baseColorTexture" : {
                    "index" : 2
                },
                "metallicFactor" : 0
            }
        }
    ],
    "meshes" : [
        {
            "name" : "Cube",
            "primitives" : [
                {
                    "attributes" : {
                        "POSITION" : 0,
                        "NORMAL" : 1,
                        "TEXCOORD_0" : 2
                    },
                    "indices" : 3,
                    "material" : 0
                }
            ]
        },
        {
            "name" : "Cube.001",
            "primitives" : [
                {
                    "attributes" : {
                        "POSITION" : 4,
                        "NORMAL" : 5,
                        "TEXCOORD_0" : 6
                    },
                    "indices" : 7,
                    "material" : 0
                }
            ]
        },
        {
            "name" : "Sphere",
            "primitives" : [
                {
                    "attributes" : {
                        "POSITION" : 8,
                        "NORMAL" : 9,
                        "TEXCOORD_0" : 10
                    },
                    "indices" : 11,
                    "material" : 0
                }
            ]
        },
        {
            "name" : "Cone",
            "primitives" : [
                {
                    "attributes" : {
                        "POSITION" : 12,
                        "NORMAL" : 13,
                        "TEXCOORD_0" : 14
                    },
                    "indices" : 15,
                    "material" : 0
                }
            ]
        },
        {
            "name" : "Cube.002",
            "primitives" : [
                {
                    "attributes" : {
                        "POSITION" : 16,
                        "NORMAL" : 17,
                        "TEXCOORD_0" : 18
                    },
                    "indices" : 7,
                    "material" : 0
                }
            ]
        },
        {
            "name" : "Cube.004",
            "primitives" : [
                {
                    "attributes" : {
                        "POSITION" : 19,
                        "NORMAL" : 20,
                        "TEXCOORD_0" : 21
                    },
                    "indices" : 7,
                    "material" : 0
                }
            ]
        },
        {
            "name" : "Cube.005",
            "primitives" : [
                {
                    "attributes" : {
                        "POSITION" : 22,
                        "NORMAL" : 23,
                        "TEXCOORD_0" : 24
                    },
                    "indices" : 7,
                    "material" : 1
                }
            ]
        },
        {
            "name" : "Cube.006",
            "primitives" : [
                {
                    "attributes" : {
                        "POSITION" : 25,
                        "NORMAL" : 26,
                        "TEXCOORD_0" : 27
                    },
                    "indices" : 7,
                    "material" : 2
                }
            ]
        }
    ],
    "textures" : [
        {
            "sampler" : 0,
            "source" : 0
        },
        {
            "sampler" : 0,
            "source" : 1
        },
        {
            "sampler" : 0,
            "source" : 1
        }
    ],
    "images" : [
        {
            "mimeType" : "image/jpeg",
            "name" : "test_texture",
            "uri" : "textures/test_texture.jpg"
        },
        {
            "mimeType" : "image/jpeg",
            "name" : "woodencratetex",
            "uri" : "textures/woodencratetex.jpg"
        }
    ],
    "accessors" : [
        {
            "bufferView" : 0,
            "componentType" : 5126,
            "count" : 24,
            "max" : [
                30.059537887573242,
                11.059537887573242,
                29.97027587890625
            ],
            "min" : [
                -30.139875411987305,
                -11.059537887573242,
                -29.97027587890625
            ],
            "type" : "VEC3"
        },
        {
            "bufferView" : 1,
            "componentType" : 5126,
            "count" : 24,
            "type" : "VEC3"
        },
        {
            "bufferView" : 2,
            "componentType" : 5126,
            "count" : 24,
            "type" : "VEC2"
        },
        {
            "bufferView" : 3,
            "componentType" : 5123,
            "count" : 36,
            "type" : "SCALAR"
        },
        {
            "bufferView" : 4,
            "componentType" : 5126,
            "count" : 24,
            "max" : [
                1,
                1,
                1
            ],
            "min" : [
                -1,
                -1,
                -1
            ],
            "type" : "VEC3"
        },
        {
            "bufferView" : 5,
            "componentType" : 5126,
            "count" : 24,
            "type" : "VEC3"
        },
        {
            "bufferView" : 6,
            "componentType" : 5126,
            "count" : 24,
            "type" : "VEC2"
        },
        {
            "bufferView" : 7,
            "componentType" : 5123,
            "count" : 36,
            "type" : "SCALAR"
        },
        {
            "bufferView" : 8,
            "componentType" : 5126,
            "count" : 1984,
            "max" : [
                3.523899555206299,
                3.5238776206970215,
                3.523881435394287
            ],
            "min" : [
                -3.5238656997680664,
                -3.5238919258117676,
                -3.523881673812866
            ],
            "type" : "VEC3"
        },
        {
            "bufferView" : 9,
            "componentType" : 5126,
            "count" : 1984,
            "type" : "VEC3"
        },
        {
            "bufferView" : 10,
            "componentType" : 5126,
            "count" : 1984,
            "type" : "VEC2"
        },
        {
            "bufferView" : 11,
            "componentType" : 5123,
            "count" : 2880,
            "type" : "SCALAR"
        },
        {
            "bufferView" : 12,
            "componentType" : 5126,
            "count" : 128,
            "max" : [
                3.5542593002319336,
                5.953708171844482,
                3.5542569160461426
            ],
            "min" : [
                -3.5542545318603516,
                -1.1548057794570923,
                -3.5542569160461426
            ],
            "type" : "VEC3"
        },
        {
            "bufferView" : 13,
            "componentType" : 5126,
            "count" : 128,
            "type" : "VEC3"
        },
        {
            "bufferView" : 14,
            "componentType" : 5126,
            "count" : 128,
            "type" : "VEC2"
        },
        {
            "bufferView" : 15,
            "componentType" : 5123,
            "count" : 186,
            "type" : "SCALAR"
        },
        {
            "bufferView" : 16,
            "componentType" : 5126,
            "count" : 24,
            "max" : [
                1,
                1,
                1
            ],
            "min" : [
                -1,
                -1,
                -1
            ],
            "type" : "VEC3"
        },
        {
            "bufferView" : 17,
            "componentType" : 5126,
            "count" : 24,
            "type" : "VEC3"
        },
        {
            "bufferView" : 18,
            "componentType" : 5126,
            "count" : 24,
            "type" : "VEC2"
        },
        {
            "bufferView" : 19,
            "componentType" : 5126,
            "count" : 24,
            "max" : [
                21.65226173400879,
                1,
                1.3996891975402832
            ],
            "min" : [
                -1,
                -26.402490615844727,
                -5.8304924964904785
            ],
            "type" : "VEC3"
        },
        {
            "bufferView" : 20,
            "componentType" : 5126,
            "count" : 24,
            "type" : "VEC3"
        },
        {
            "bufferView" : 21,
            "componentType" : 5126,
            "count" : 24,
            "type" : "VEC2"
        },
        {
            "bufferView" : 22,
            "componentType" : 5126,
            "count" : 24,
            "max" : [
                1.4103392362594604,
                1.4103392362594604,
                1.4103392362594604
            ],
            "min" : [
                -1.4103392362594604,
                -1.4103392362594604,
                -1.4103392362594604
            ],
            "type" : "VEC3"
        },
        {
            "bufferView" : 23,
            "componentType" : 5126,
            "count" : 24,
            "type" : "VEC3"
        },
        {
            "bufferView" : 24,
            "componentType" : 5126,
            "count" : 24,
            "type" : "VEC2"
        },
        {
            "bufferView" : 25,
            "componentType" : 5126,
            "count" : 24,
            "max" : [
                1.4103392362594604,
                1.4103392362594604,
                1.4103392362594604
            ],
            "min" : [
                -1.4103392362594604,
                -1.4103392362594604,
                -1.4103392362594604
            ],
            "type" : "VEC3"
        },
        {
            "bufferView" : 26,
            "componentType" : 5126,
            "count" : 24,
            "type" : "VEC3"
        },
        {
            "bufferView" : 27,
            "componentType" : 5126,
            "count" : 24,
            "type" : "VEC2"
        }
    ],
    "bufferViews" : [
        {
            "buffer" : 0,
            "byteLength" : 288,
            "byteOffset" : 0
        },
        {
            "buffer" : 0,
            "byteLength" : 288,
            "byteOffset" : 288
        },
        {
            "buffer" : 0,
            "byteLength" : 192,
            "byteOffset" : 576
        },
        {
            "buffer" : 0,
            "byteLength" : 72,
            "byteOffset" : 768
        },
        {
            "buffer" : 0,
            "byteLength" : 288,
            "byteOffset" : 840
        },
        {
            "buffer" : 0,
            "byteLength" : 288,
            "byteOffset" : 1128
        },
        {
            "buffer" : 0,
            "byteLength" : 192,
            "byteOffset" : 1416
        },
        {
            "buffer" : 0,
            "byteLength" : 72,
            "byteOffset" : 1608
        },
        {
            "buffer" : 0,
            "byteLength" : 23808,
            "byteOffset" : 1680
        },
        {
            "buffer" : 0,
            "byteLength" : 23808,
            "byteOffset" : 25488
        },
        {
            "buffer" : 0,
            "byteLength" : 15872,
            "byteOffset" : 49296
        },
        {
            "buffer" : 0,
            "byteLength" : 5760,
            "byteOffset" : 65168
        },
        {
            "buffer" : 0,
            "byteLength" : 1536,
            "byteOffset" : 70928
        },
        {
            "buffer" : 0,
            "byteLength" : 1536,
            "byteOffset" : 72464
        },
        {
            "buffer" : 0,
            "byteLength" : 1024,
            "byteOffset" : 74000
        },
        {
            "buffer" : 0,
            "byteLength" : 372,
            "byteOffset" : 75024
        },
        {
            "buffer" : 0,
            "byteLength" : 288,
            "byteOffset" : 75396
        },
        {
            "buffer" : 0,
            "byteLength" : 288,
            "byteOffset" : 75684
        },
        {
            "buffer" : 0,
            "byteLength" : 192,
            "byteOffset" : 75972
        },
        {
            "buffer" : 0,
            "byteLength" : 288,
            "byteOffset" : 76164
        },
        {
            "buffer" : 0,
            "byteLength" : 288,
            "byteOffset" : 76452
        },
        {
            "buffer" : 0,
            "byteLength" : 192,
            "byteOffset" : 76740
        },
        {
            "buffer" : 0,
            "byteLength" : 288,
            "byteOffset" : 76932
        },
        {
            "buffer" : 0,
            "byteLength" : 288,
            "byteOffset" : 77220
        },
        {
            "buffer" : 0,
            "byteLength" : 192,
            "byteOffset" : 77508
        },
        {
            "buffer" : 0,
            "byteLength" : 288,
            "byteOffset" : 77700
        },
        {
            "buffer" : 0,
            "byteLength" : 288,
            "byteOffset" : 77988
        },
        {
            "buffer" : 0,
            "byteLength" : 192,
            "byteOffset" : 78276
        }
    ],
    "samplers" : [
        {
            "magFilter" : 9728,
            "minFilter" : 9984
        }
    ],
    "buffers" : [
        {
            "byteLength" : 78468,
            "uri" : "test_room.bin"
        }
    ]
}
